<?xml version="1.0" encoding="UTF-8"?>
<svg id="Layer_2" data-name="Layer 2" xmlns="http://www.w3.org/2000/svg" viewBox="0 0 54.3 51.19">
  <defs>
    <style>
      .cls-1 {
        fill: #a2226f;
        stroke-width: 0px;
      }
    </style>
  </defs>
  <g id="Layer_1-2" data-name="Layer 1">
    <g>
      <polygon class="cls-1" points="23.15 6.34 24.42 9.09 26.84 7.98 23.15 0 17.48 12.3 21.2 10.58 23.15 6.34"/>
      <polygon class="cls-1" points="42.58 48.53 43.81 51.19 46.77 51.19 40.86 38.38 38.43 39.5 42.59 48.53 42.58 48.53"/>
      <path class="cls-1" d="M54.23,24.99l-.07-.15-.07-.15-.07-.15-.07-.15-.07-.15-.07-.15-.14-.3-.07-.15-.07-.15-.07-.15-.07-.15-.07-.15-.07-.15s-.07-.15-.07-.15l-.17-.36-.17-.36-.17-.36-.17-.36-.17-.36-.17-.36-.17-.36-.33-.73-.17-.36-.17-.36-.17-.36-.17-.36-.17-.36-.17-.36s-.17-.36-.16-.37l-.07-.15-.07-.15-.07-.15-.14-.3-.07-.15-.07-.15-.14-.3-.07-.15-.07-.15-.07-.15-.07-.15-.07-.15-.07-.15s-.07-.15-.08-.16l-.3.14-.15.07-.45.21-.15.07-.45.21-.15.07-.45.21-.15.07s-.15.07-.15.08l-.86.39-.86.39-.86.39-.86.39-.86.39-.86.39-.86.39-1.71.79-.86.39-1.71.79-.86.39-.86.39-.86.39-.86.39-.17-.36-.17-.36-.17-.36-.17-.36-.17-.36-.17-.36-.17-.36-.17-.36-.17-.36-.17-.36-.17-.36-.17-.36-.04-.08-2.43,1.12s.35.76.37.8l.33.72.33.72.33.72.33.72.33.72-1.22.57-1.22.57-2.45,1.13-1.22.57-1.22.57-1.22.57c-1.09.5-2.59,1.19-3.68,1.7l-1.23.57-3.68,1.7-1.23.57-1.23.57,1.28-2.79.26-.56,1.54-3.35.26-.56.26-.56.51-1.12.8-.37.8-.37.8-.37.8-.37,1.61-.74.8-.37.8-.37c.4-.18,1.2-.56,1.6-.74,7.79-3.6,15.59-7.19,23.38-10.79-.37-.8-.74-1.61-1.11-2.41-7.33,3.5-24.14,11.09-32.3,14.9l-1.42,3.07-.47,1.02-.47,1.02-.47,1.02-1.89,4.09-.47,1.02-1.42,3.07-.47,1.02-.47,1.02.47-.22.23-.11.7-.32.23-.11.7-.32.23-.11.47-.22.23-.11.23-.11s.23-.11.23-.11l1.4-.65,1.4-.65,1.4-.65,1.4-.65,1.4-.65,1.4-.65,1.4-.65c.7-.32,2.11-.97,2.8-1.29l1.4-.65,1.4-.65,1.4-.65,1.4-.65,1.4-.65,1.4-.65,1.4-.65.33.73.33.73.33.73.33.73.33.73.33.73.04.09,2.42-1.11-.04-.09-.33-.73-.33-.73-.33-.73-.33-.73-.33-.73-.33-.73.81-.37.81-.37.81-.37.81-.37.81-.37.81-.37.81-.37.81-.37.9-.42,1.81-.83.9-.42.9-.42.9-.42.9-.42.9-.42.17.36.17.36.17.36.33.73.17.36.17.36.33.73.17.36.17.36.17.36.17.36.17.36.17.36.17.36-1.71.79-1.71.79-1.71.79-1.71.79-1.71.79-1.71.79-1.71.79s-1.71.79-1.71.79c0,0-2.42,1.11-2.42,1.11l-.99.46-.99.46-.76.35s-5.34,2.46-5.34,2.46c-3.73,1.72-8.17,3.77-11.9,5.49l-6.02,2.78-3.01,1.39s-3.01,1.39-3.01,1.39l-.12.05-.06.03-.18.08-.06.03-.18.08-.06.03-.12.05-.06.03-.06.03-.06.03-.1.23-.1.23-.1.23-.1.23-.1.23-.1.23-.1.23-.21.45-.1.23-.1.23-.1.23-.1.23-.1.23-.1.23-.1.23c18.03-8.32,36.26-16.73,54.3-25.05l-.07-.15Z"/>
    </g>
  </g>
</svg>